<svg width="1025" height="555" viewBox="0 0 1025 555" fill="none" xmlns="http://www.w3.org/2000/svg">
<path d="M858.352 1.3371C857.753 0.467997 856.755 0 855.69 0H614.327C612.464 0 611 1.4708 611 3.3427C611 5.2145 612.464 6.6853 614.327 6.6853C632.761 6.6853 648.732 16.446 660.643 34.897C674.219 56.023 681.872 88.046 682.803 127.623C683.336 151.957 689.724 170.074 702.235 183.044C713.281 194.476 727.522 200.493 741.297 206.242C758.533 213.529 774.837 220.415 783.354 237.195C783.953 238.331 785.085 239 786.349 239C786.416 239 786.549 239 786.615 239C787.946 238.866 789.144 237.93 789.477 236.66L858.884 4.2786C859.15 3.2758 858.951 2.2062 858.352 1.3371Z" fill="#F3F6E6"/>
<path d="M612.677 81.6431H179.323V439.746H612.677V81.6431Z" fill="#F3F6E6"/>
<path d="M616 442.999H176V78.3242H616V442.999ZM182.646 436.362H609.354V84.9622H182.646V436.362Z" fill="#383A48"/>
<path d="M612.677 3.25195H179.323V81.577H612.677V3.25195Z" fill="#E0719E"/>
<path d="M612.677 84.963H179.323C177.462 84.963 176 83.502 176 81.644V3.3188C176 1.4603 177.462 0 179.323 0H612.677C614.538 0 616 1.4603 616 3.3188V81.644C616 83.436 614.538 84.963 612.677 84.963ZM182.646 78.325H609.354V6.6377H182.646V78.325Z" fill="#383A48"/>
<path d="M220.924 53.6328C227.126 53.6328 232.155 48.6098 232.155 42.4148C232.155 36.2198 227.126 31.1968 220.924 31.1968C214.721 31.1968 209.693 36.2198 209.693 42.4148C209.693 48.6098 214.721 53.6328 220.924 53.6328Z" fill="#E0719E"/>
<path d="M220.924 57.0178C212.883 57.0178 206.37 50.5128 206.37 42.4818C206.37 34.4498 212.883 27.9448 220.924 27.9448C228.965 27.9448 235.478 34.4498 235.478 42.4818C235.478 50.5128 228.965 57.0178 220.924 57.0178ZM220.924 34.5168C216.538 34.5168 213.016 38.0348 213.016 42.4148C213.016 46.7958 216.538 50.3138 220.924 50.3138C225.31 50.3138 228.832 46.7958 228.832 42.4148C228.832 38.0348 225.31 34.5168 220.924 34.5168Z" fill="#383A48"/>
<path d="M255.348 53.6328C261.55 53.6328 266.579 48.6098 266.579 42.4148C266.579 36.2198 261.55 31.1968 255.348 31.1968C249.145 31.1968 244.117 36.2198 244.117 42.4148C244.117 48.6098 249.145 53.6328 255.348 53.6328Z" fill="#F6E049"/>
<path d="M255.348 57.0178C247.307 57.0178 240.794 50.5128 240.794 42.4818C240.794 34.4498 247.307 27.9448 255.348 27.9448C263.389 27.9448 269.901 34.4498 269.901 42.4818C269.901 50.5128 263.322 57.0178 255.348 57.0178ZM255.348 34.5168C250.962 34.5168 247.439 38.0348 247.439 42.4148C247.439 46.7958 250.962 50.3138 255.348 50.3138C259.734 50.3138 263.256 46.7958 263.256 42.4148C263.256 38.0348 259.667 34.5168 255.348 34.5168Z" fill="#383A48"/>
<path d="M289.705 53.6328C295.908 53.6328 300.936 48.6098 300.936 42.4148C300.936 36.2198 295.908 31.1968 289.705 31.1968C283.502 31.1968 278.474 36.2198 278.474 42.4148C278.474 48.6098 283.502 53.6328 289.705 53.6328Z" fill="#7FD6C2"/>
<path d="M289.705 57.0178C281.664 57.0178 275.151 50.5128 275.151 42.4818C275.151 34.4498 281.664 27.9448 289.705 27.9448C297.746 27.9448 304.259 34.4498 304.259 42.4818C304.259 50.5128 297.746 57.0178 289.705 57.0178ZM289.705 34.5168C285.319 34.5168 281.797 38.0348 281.797 42.4148C281.797 46.7958 285.319 50.3138 289.705 50.3138C294.091 50.3138 297.613 46.7958 297.613 42.4148C297.613 38.0348 294.091 34.5168 289.705 34.5168Z" fill="#383A48"/>
<path d="M558.677 133.631H125.323V491.681H558.677V133.631Z" fill="#F3F6E6"/>
<path d="M562 494.999H122V130.312H562V494.999ZM128.646 488.363H555.354V136.949H128.646V488.363Z" fill="#383A48"/>
<path d="M558.677 55.3179H125.323V133.631H558.677V55.3179Z" fill="#F6E049"/>
<path d="M562 136.95H122V52H562V136.95ZM128.646 130.313H555.354V58.637H128.646V130.313Z" fill="#383A48"/>
<path d="M167.721 105.692C173.924 105.692 178.952 100.67 178.952 94.4758C178.952 88.2808 173.924 83.2598 167.721 83.2598C161.518 83.2598 156.49 88.2808 156.49 94.4758C156.49 100.67 161.518 105.692 167.721 105.692Z" fill="#E0719E"/>
<path d="M167.721 109.01C159.68 109.01 153.167 102.506 153.167 94.4759C153.167 86.4449 159.68 79.9409 167.721 79.9409C175.762 79.9409 182.275 86.4449 182.275 94.4759C182.275 102.506 175.762 109.01 167.721 109.01ZM167.721 86.5779C163.335 86.5779 159.813 90.0959 159.813 94.4759C159.813 98.8559 163.335 102.373 167.721 102.373C172.107 102.373 175.629 98.8559 175.629 94.4759C175.629 90.0959 172.107 86.5779 167.721 86.5779Z" fill="#383A48"/>
<path d="M202.145 105.692C208.348 105.692 213.376 100.67 213.376 94.4758C213.376 88.2808 208.348 83.2598 202.145 83.2598C195.942 83.2598 190.914 88.2808 190.914 94.4758C190.914 100.67 195.942 105.692 202.145 105.692Z" fill="#F6E049"/>
<path d="M202.145 109.01C194.104 109.01 187.591 102.506 187.591 94.4759C187.591 86.4449 194.104 79.9409 202.145 79.9409C210.186 79.9409 216.699 86.4449 216.699 94.4759C216.699 102.506 210.12 109.01 202.145 109.01ZM202.145 86.5779C197.759 86.5779 194.237 90.0959 194.237 94.4759C194.237 98.8559 197.759 102.373 202.145 102.373C206.531 102.373 210.053 98.8559 210.053 94.4759C210.053 90.0959 206.465 86.5779 202.145 86.5779Z" fill="#383A48"/>
<path d="M236.503 105.692C242.706 105.692 247.733 100.67 247.733 94.4758C247.733 88.2808 242.706 83.2598 236.503 83.2598C230.301 83.2598 225.271 88.2808 225.271 94.4758C225.271 100.67 230.301 105.692 236.503 105.692Z" fill="#7FD6C2"/>
<path d="M236.502 109.01C228.461 109.01 221.949 102.506 221.949 94.4759C221.949 86.4449 228.461 79.9409 236.502 79.9409C244.544 79.9409 251.056 86.4449 251.056 94.4759C251.056 102.506 244.544 109.01 236.502 109.01ZM236.502 86.5779C232.116 86.5779 228.594 90.0959 228.594 94.4759C228.594 98.8559 232.116 102.373 236.502 102.373C240.888 102.373 244.411 98.8559 244.411 94.4759C244.411 90.0959 240.888 86.5779 236.502 86.5779Z" fill="#383A48"/>
<path d="M501.669 189.828H67.3301V548.74H501.669V189.828Z" fill="#F3F6E6"/>
<path d="M505 552H64V186.502H505V552ZM70.661 545.348H498.339V193.155H70.661V545.348Z" fill="#383A48"/>
<path d="M501.669 111.26H67.3301V189.761H501.669V111.26Z" fill="#AAC6FC"/>
<path d="M501.67 193.154H67.33C65.465 193.154 64 191.691 64 189.828V111.326C64 109.464 65.465 108 67.33 108H501.67C503.535 108 505 109.464 505 111.326V189.828C505 191.624 503.535 193.154 501.67 193.154ZM70.661 186.502H498.339V114.653H70.661V186.502Z" fill="#383A48"/>
<path d="M109.026 161.754C115.243 161.754 120.282 156.72 120.282 150.511C120.282 144.301 115.243 139.268 109.026 139.268C102.809 139.268 97.7695 144.301 97.7695 150.511C97.7695 156.72 102.809 161.754 109.026 161.754Z" fill="#E0719E"/>
<path d="M109.026 165.147C100.966 165.147 94.4395 158.627 94.4395 150.577C94.4395 142.527 100.966 136.008 109.026 136.008C117.085 136.008 123.613 142.527 123.613 150.577C123.613 158.627 117.085 165.147 109.026 165.147ZM109.026 142.594C104.63 142.594 101.1 146.12 101.1 150.511C101.1 154.901 104.63 158.427 109.026 158.427C113.422 158.427 116.952 154.901 116.952 150.511C116.952 146.12 113.422 142.594 109.026 142.594Z" fill="#383A48"/>
<path d="M143.529 161.754C149.746 161.754 154.784 156.72 154.784 150.511C154.784 144.301 149.746 139.268 143.529 139.268C137.312 139.268 132.271 144.301 132.271 150.511C132.271 156.72 137.312 161.754 143.529 161.754Z" fill="#F6E049"/>
<path d="M143.528 165.147C135.468 165.147 128.941 158.627 128.941 150.577C128.941 142.527 135.468 136.008 143.528 136.008C151.587 136.008 158.114 142.527 158.114 150.577C158.114 158.627 151.52 165.147 143.528 165.147ZM143.528 142.594C139.132 142.594 135.602 146.12 135.602 150.511C135.602 154.901 139.132 158.427 143.528 158.427C147.924 158.427 151.454 154.901 151.454 150.511C151.454 146.12 147.857 142.594 143.528 142.594Z" fill="#383A48"/>
<path d="M177.963 161.754C184.18 161.754 189.22 156.72 189.22 150.511C189.22 144.301 184.18 139.268 177.963 139.268C171.747 139.268 166.707 144.301 166.707 150.511C166.707 156.72 171.747 161.754 177.963 161.754Z" fill="#7FD6C2"/>
<path d="M177.963 165.147C169.904 165.147 163.376 158.627 163.376 150.577C163.376 142.527 169.904 136.008 177.963 136.008C186.023 136.008 192.55 142.527 192.55 150.577C192.55 158.627 186.023 165.147 177.963 165.147ZM177.963 142.594C173.567 142.594 170.037 146.12 170.037 150.511C170.037 154.901 173.567 158.427 177.963 158.427C182.359 158.427 185.889 154.901 185.889 150.511C185.889 146.12 182.359 142.594 177.963 142.594Z" fill="#383A48"/>
<path d="M748.286 550.592C768.522 550.592 784.927 534.171 784.927 513.915C784.927 493.659 768.522 477.238 748.286 477.238C728.05 477.238 711.645 493.659 711.645 513.915C711.645 534.171 728.05 550.592 748.286 550.592Z" fill="#383A48"/>
<path d="M748.286 553.933C726.262 553.933 708.308 535.962 708.308 513.916C708.308 491.87 726.262 473.898 748.286 473.898C770.311 473.898 788.265 491.87 788.265 513.916C788.265 535.962 770.311 553.933 748.286 553.933ZM748.286 480.579C729.932 480.579 714.982 495.544 714.982 513.916C714.982 532.288 729.932 547.252 748.286 547.252C766.64 547.252 781.59 532.288 781.59 513.916C781.59 495.544 766.64 480.579 748.286 480.579Z" fill="#383A48"/>
<path d="M515.091 550.659C535.327 550.659 551.732 534.238 551.732 513.982C551.732 493.726 535.327 477.305 515.091 477.305C494.855 477.305 478.45 493.726 478.45 513.982C478.45 534.238 494.855 550.659 515.091 550.659Z" fill="#383A48"/>
<path d="M515.091 554C493.066 554 475.113 536.028 475.113 513.982C475.113 491.936 493.066 473.965 515.091 473.965C537.116 473.965 555.069 491.936 555.069 513.982C555.069 536.028 537.182 554 515.091 554ZM515.091 480.646C496.737 480.646 481.787 495.61 481.787 513.982C481.787 532.354 496.737 547.319 515.091 547.319C533.445 547.319 548.395 532.354 548.395 513.982C548.395 495.61 533.512 480.646 515.091 480.646Z" fill="#383A48"/>
<path d="M447.348 458.799C448.616 455.592 450.352 452.519 452.554 449.847C453.288 448.912 454.089 447.976 454.89 447.175C457.493 444.569 460.43 442.431 463.633 440.828C466.904 439.225 470.374 438.089 473.978 437.555L529.774 429.337L614.736 313.895C619.475 307.415 623.413 303.473 630.154 303.406C630.154 303.406 630.22 303.406 630.287 303.406H752.624C759.699 303.406 766.507 306.212 771.379 311.356L890.38 430.339V453.321C890.38 455.592 891.31 457.73 892.92 459.334C893.72 460.135 894.25 461.004 894.72 462.006C895.12 463.075 895.32 464.144 895.32 465.279V499.284C895.32 503.159 893.72 506.9 891.05 509.706C889.71 511.109 888.04 512.178 886.24 512.913C884.44 513.648 882.57 514.049 880.635 514.049H456.358C454.089 514.049 451.887 513.447 450.018 512.178C448.416 511.109 447.148 509.639 446.214 508.036C445.346 506.433 444.879 504.562 444.879 502.625V471.493C444.879 466.95 445.747 462.741 447.348 458.799Z" fill="#7FD6C2"/>
<path d="M880.702 517.256H456.358C453.422 517.256 450.552 516.388 448.149 514.784C446.214 513.515 444.478 511.711 443.277 509.44C442.076 507.302 441.475 504.897 441.475 502.425V471.293C441.475 466.55 442.409 461.94 444.212 457.531C445.613 453.923 447.549 450.583 449.885 447.777C450.685 446.708 451.553 445.773 452.487 444.837C455.291 442.032 458.494 439.693 462.098 437.89C465.702 436.086 469.507 434.883 473.444 434.282L527.905 426.265L612 311.892C616.538 305.679 621.344 300.067 630.087 300H630.22H752.558C760.5 300 768.242 303.274 773.715 308.952L892.65 427.935C893.25 428.537 893.65 429.405 893.65 430.274V453.255C893.65 454.591 894.18 455.927 895.25 456.996C896.25 457.998 897.12 459.268 897.72 460.671C898.32 462.14 898.59 463.677 898.59 465.214V499.218C898.59 503.962 896.72 508.504 893.32 511.978C891.71 513.649 889.71 514.985 887.44 515.92C885.37 516.789 883.1 517.256 880.702 517.256ZM630.22 306.681C625.014 306.748 622.011 309.687 617.473 315.833L532.511 431.276C531.977 432.011 531.176 432.478 530.308 432.612L474.512 440.829C471.309 441.297 468.172 442.299 465.168 443.769C462.232 445.238 459.562 447.176 457.293 449.514C456.559 450.249 455.825 451.051 455.224 451.852L455.157 451.919C453.222 454.257 451.687 456.93 450.485 459.936C450.485 459.936 450.485 459.936 450.485 460.003C449.017 463.61 448.283 467.418 448.283 471.293V502.425C448.283 503.761 448.616 505.097 449.217 506.233C449.885 507.502 450.819 508.504 451.887 509.173C453.222 510.041 454.757 510.509 456.425 510.509H880.702C882.24 510.509 883.7 510.241 885.04 509.64C886.44 509.039 887.71 508.237 888.71 507.235C890.91 505.031 892.05 502.158 892.05 499.152V465.147C892.05 464.479 891.91 463.811 891.65 463.143C891.38 462.541 891.05 462.007 890.58 461.606C888.31 459.268 887.11 456.261 887.11 453.188V431.61L769.11 313.562C764.771 309.086 758.965 306.614 752.691 306.614L630.22 306.681Z" fill="#383A48"/>
<path d="M647.774 430.942H542.856L620.743 325.387H722.191L647.774 430.942Z" fill="#AAC6FC"/>
<path d="M647.774 434.282H542.856C541.588 434.282 540.453 433.547 539.852 432.478C539.252 431.343 539.385 430.006 540.119 429.004L618.074 323.449C618.674 322.581 619.675 322.113 620.743 322.113H722.19C723.459 322.113 724.593 322.781 725.127 323.917C725.661 325.053 725.594 326.389 724.86 327.391L650.443 432.946C649.843 433.748 648.841 434.282 647.774 434.282ZM549.463 427.601H646.038L715.717 328.727H622.412L549.463 427.601Z" fill="#383A48"/>
<path d="M872.358 464.412H781.189V513.983H872.358V464.412Z" fill="#383A48"/>
<path d="M872.359 517.324H781.19C779.321 517.324 777.854 515.854 777.854 513.983V464.413C777.854 462.542 779.321 461.072 781.19 461.072H872.359C874.227 461.072 875.696 462.542 875.696 464.413V513.983C875.696 515.787 874.227 517.324 872.359 517.324ZM784.527 510.643H869.022V467.753H784.527V510.643Z" fill="#383A48"/>
<path d="M905.66 465.146V499.218C905.66 503.093 904.06 506.834 901.39 509.64C898.59 512.446 894.92 513.915 890.98 513.915H872.426V513.515C872.426 491.535 854.606 473.631 832.581 473.631C810.623 473.631 792.736 491.468 792.736 513.515V513.915H639.497V512.112C639.497 490.733 622.145 473.497 600.787 473.631C579.563 473.764 562.611 491.401 562.611 512.579V513.915H542.922C540.653 513.915 538.451 513.247 536.582 512.045C533.512 509.907 531.576 506.299 531.576 502.425V471.226C531.576 462.207 535.113 453.522 541.521 447.108C546.66 441.964 553.401 438.557 560.609 437.488L616.405 429.271L694.693 319.975C696.294 317.703 698.163 315.632 700.165 313.829C707.44 307.148 717.051 303.34 727.129 303.34H840.123C849.8 303.674 857.876 310.822 859.945 320.242L870.557 353.779L905.66 465.146Z" fill="#F3F6E6"/>
<path d="M890.98 517.323H872.426C870.557 517.323 869.089 515.853 869.089 513.982V513.581C869.089 493.406 852.67 477.038 832.581 477.038C812.425 477.038 796.073 493.473 796.073 513.581V513.982C796.073 515.853 794.605 517.323 792.736 517.323H639.497C637.629 517.323 636.16 515.853 636.16 513.982V512.178C636.16 502.759 632.489 493.873 625.815 487.259C619.141 480.646 610.265 476.971 600.787 477.038C581.566 477.172 565.881 493.138 565.881 512.646V513.982C565.881 515.853 564.413 517.323 562.544 517.323H542.856C539.986 517.323 537.182 516.454 534.713 514.918C534.646 514.918 534.646 514.851 534.58 514.851C530.575 512.045 528.172 507.435 528.172 502.491V471.293C528.172 461.272 532.043 451.919 539.118 444.837C544.791 439.158 552.199 435.417 560.075 434.282L614.469 426.265L691.956 318.104C693.692 315.699 695.694 313.428 697.896 311.424C705.905 304.075 716.25 300.066 727.062 300.066H840.056C840.123 300.066 840.123 300.066 840.189 300.066C851.268 300.4 860.679 308.417 863.148 319.44L908.87 464.211C909 464.545 909 464.879 909 465.213V499.285C909 504.028 907.13 508.571 903.73 512.045C900.32 515.452 895.79 517.323 890.98 517.323ZM875.629 510.642H890.98C893.98 510.642 896.85 509.439 898.99 507.302C901.12 505.097 902.33 502.291 902.33 499.285V465.681L856.741 321.244C856.741 321.177 856.675 321.044 856.675 320.977C854.939 312.827 848.065 307.014 840.056 306.68H727.129C717.985 306.68 709.176 310.087 702.435 316.3C700.566 317.971 698.897 319.908 697.429 321.912L619.074 431.208C618.54 431.943 617.74 432.411 616.872 432.545L561.076 440.762C554.602 441.697 548.529 444.77 543.857 449.447C538.05 455.259 534.847 462.942 534.847 471.226V502.425C534.847 505.097 536.181 507.702 538.384 509.239C539.785 510.107 541.32 510.575 542.856 510.575H559.274C560.342 488.328 578.496 470.424 600.72 470.29C611.933 470.224 622.478 474.499 630.487 482.449C638.096 489.999 642.434 499.953 642.768 510.575H789.466C791.001 488.128 809.755 470.29 832.581 470.29C855.406 470.29 874.094 488.195 875.629 510.642Z" fill="#383A48"/>
<path d="M866.085 430.942H647.773L722.19 325.387H834.116L866.085 430.942Z" fill="#AAC6FC"/>
<path d="M866.085 434.283H647.773C646.505 434.283 645.371 433.614 644.837 432.479C644.236 431.343 644.37 430.007 645.104 429.005L719.521 323.45C720.121 322.581 721.189 322.047 722.257 322.047H834.183C835.651 322.047 836.919 322.982 837.386 324.385L869.356 429.94C869.689 430.942 869.489 432.078 868.822 432.88C868.154 433.815 867.153 434.283 866.085 434.283ZM654.181 427.602H861.547L831.58 328.728H723.859L654.181 427.602Z" fill="#383A48"/>
<path d="M726.395 517.323C724.526 517.323 723.058 515.854 723.058 513.983V430.942C723.058 429.071 724.526 427.602 726.395 427.602C728.264 427.602 729.732 429.071 729.732 430.942V513.983C729.732 515.787 728.197 517.323 726.395 517.323Z" fill="#383A48"/>
<path d="M469.573 478.374H456.425C454.089 478.374 452.153 476.436 452.153 474.098C452.153 471.76 454.089 469.822 456.425 469.822H469.573C471.909 469.822 473.844 471.76 473.844 474.098C473.844 476.503 471.909 478.374 469.573 478.374Z" fill="#383A48"/>
<path d="M469.573 481.714H456.425C452.22 481.714 448.816 478.307 448.816 474.098C448.816 469.89 452.22 466.482 456.425 466.482H469.573C473.778 466.482 477.182 469.89 477.182 474.098C477.182 478.307 473.778 481.714 469.573 481.714ZM456.425 473.163C455.891 473.163 455.491 473.564 455.491 474.098C455.491 474.633 455.891 475.034 456.425 475.034H469.573C470.107 475.034 470.507 474.633 470.507 474.098C470.507 473.564 470.107 473.163 469.573 473.163H456.425Z" fill="#383A48"/>
<path d="M518.562 478.374H505.414C503.078 478.374 501.142 476.436 501.142 474.098C501.142 471.76 503.078 469.822 505.414 469.822H518.562C520.898 469.822 522.833 471.76 522.833 474.098C522.833 476.503 520.898 478.374 518.562 478.374Z" fill="#383A48"/>
<path d="M518.562 481.714H505.414C501.209 481.714 497.805 478.307 497.805 474.098C497.805 469.89 501.209 466.482 505.414 466.482H518.562C522.767 466.482 526.17 469.89 526.17 474.098C526.17 478.307 522.767 481.714 518.562 481.714ZM505.347 473.163C504.813 473.163 504.413 473.564 504.413 474.098C504.413 474.633 504.813 475.034 505.347 475.034H518.495C519.029 475.034 519.429 474.633 519.429 474.098C519.429 473.564 519.029 473.163 518.495 473.163H505.347Z" fill="#383A48"/>
<path d="M437.337 511.577C437.337 506.099 441.942 501.623 447.615 501.623H552.132C557.806 501.623 562.411 506.099 562.411 511.577C562.411 517.055 557.806 521.532 552.132 521.532H447.615C441.942 521.532 437.337 517.122 437.337 511.577Z" fill="#F3F6E6"/>
<path d="M552.199 524.872H447.615C440.073 524.872 434 518.927 434 511.578C434 504.229 440.14 498.283 447.615 498.283H552.133C559.674 498.283 565.748 504.229 565.748 511.578C565.748 518.927 559.674 524.872 552.199 524.872ZM447.615 505.031C443.811 505.031 440.674 507.97 440.674 511.645C440.674 515.319 443.811 518.258 447.615 518.258H552.133C555.937 518.258 559.074 515.319 559.074 511.645C559.074 507.97 555.937 505.031 552.133 505.031H447.615Z" fill="#383A48"/>
<path d="M833.849 550.592C854.085 550.592 870.49 534.171 870.49 513.915C870.49 493.659 854.085 477.238 833.849 477.238C813.612 477.238 797.208 493.659 797.208 513.915C797.208 534.171 813.612 550.592 833.849 550.592Z" fill="#383A48"/>
<path d="M833.849 553.933C811.824 553.933 793.871 535.962 793.871 513.916C793.871 491.87 811.824 473.898 833.849 473.898C855.874 473.898 873.827 491.87 873.827 513.916C873.827 535.962 855.874 553.933 833.849 553.933ZM833.849 480.579C815.495 480.579 800.545 495.544 800.545 513.916C800.545 532.288 815.495 547.252 833.849 547.252C852.203 547.252 867.153 532.288 867.153 513.916C867.153 495.544 852.203 480.579 833.849 480.579Z" fill="#383A48"/>
<path d="M833.849 541.372C848.998 541.372 861.28 529.079 861.28 513.915C861.28 498.75 848.998 486.457 833.849 486.457C818.699 486.457 806.418 498.75 806.418 513.915C806.418 529.079 818.699 541.372 833.849 541.372Z" fill="#F3F6E6"/>
<path d="M833.849 544.713C816.897 544.713 803.081 530.884 803.081 513.915C803.081 496.946 816.897 483.117 833.849 483.117C850.801 483.117 864.617 496.946 864.617 513.915C864.617 530.884 850.801 544.713 833.849 544.713ZM833.849 489.798C820.567 489.798 809.755 500.621 809.755 513.915C809.755 527.21 820.567 538.032 833.849 538.032C847.13 538.032 857.943 527.21 857.943 513.915C857.876 500.621 847.13 489.798 833.849 489.798Z" fill="#383A48"/>
<path d="M600.654 550.659C620.89 550.659 637.295 534.238 637.295 513.982C637.295 493.726 620.89 477.305 600.654 477.305C580.417 477.305 564.013 493.726 564.013 513.982C564.013 534.238 580.417 550.659 600.654 550.659Z" fill="#383A48"/>
<path d="M600.654 554C578.629 554 560.676 536.028 560.676 513.982C560.676 491.936 578.629 473.965 600.654 473.965C622.679 473.965 640.632 491.936 640.632 513.982C640.632 536.028 622.679 554 600.654 554ZM600.654 480.646C582.3 480.646 567.35 495.61 567.35 513.982C567.35 532.354 582.3 547.319 600.654 547.319C619.008 547.319 633.958 532.354 633.958 513.982C633.958 495.61 619.008 480.646 600.654 480.646Z" fill="#383A48"/>
<path d="M600.654 541.439C615.804 541.439 628.085 529.146 628.085 513.981C628.085 498.817 615.804 486.523 600.654 486.523C585.504 486.523 573.223 498.817 573.223 513.981C573.223 529.146 585.504 541.439 600.654 541.439Z" fill="#F3F6E6"/>
<path d="M600.654 544.78C583.702 544.78 569.886 530.951 569.886 513.982C569.886 497.013 583.702 483.184 600.654 483.184C617.606 483.184 631.422 497.013 631.422 513.982C631.422 530.951 617.606 544.78 600.654 544.78ZM600.654 489.864C587.373 489.864 576.56 500.687 576.56 513.982C576.56 527.276 587.373 538.099 600.654 538.099C613.936 538.099 624.748 527.276 624.748 513.982C624.748 500.687 613.936 489.864 600.654 489.864Z" fill="#383A48"/>
<path d="M873.828 353.667L863.358 320.333C860.906 309.267 851.563 301.333 840.563 301C840.496 301 840.496 301 840.43 301H749.313C747.458 301 746 302.467 746 304.333V354.667C746 356.533 747.458 358 749.313 358H870.648C871.708 358 872.702 357.467 873.298 356.667C874.027 355.8 874.16 354.667 873.828 353.667Z" fill="#383A48"/>
<path d="M1020.66 3.33594H787.336V312.665H1020.66V3.33594Z" fill="#F3F6E6"/>
<path d="M1020.66 316H787.336C785.468 316 784 314.532 784 312.665V3.3354C784 1.4676 785.468 0 787.336 0H1020.66C1022.53 0 1024 1.4676 1024 3.3354V312.665C1024 314.532 1022.53 316 1020.66 316ZM790.672 309.329H1017.33V6.6709H790.672V309.329Z" fill="#383A48"/>
<path d="M284.346 319.934C296.107 310.287 303.592 295.55 303.592 279.137C303.592 249.997 280.002 226.35 250.933 226.35C221.864 226.35 198.274 249.997 198.274 279.137C198.274 295.55 205.759 310.287 217.52 319.934C205.759 329.58 198.274 344.318 198.274 360.731C198.274 389.871 221.864 413.518 250.933 413.518C280.002 413.518 303.592 389.871 303.592 360.731C303.592 344.318 296.107 329.647 284.346 319.934Z" fill="#7FD6C2"/>
<path d="M251 416.868C220.126 416.868 195 391.68 195 360.73C195 345.189 201.348 330.518 212.575 319.934C201.348 309.349 195 294.679 195 279.137C195 248.188 220.126 223 251 223C281.874 223 307 248.188 307 279.137C307 294.679 300.652 309.349 289.425 319.934C300.652 330.518 307 345.189 307 360.73C306.933 391.68 281.807 416.868 251 416.868ZM251 229.766C223.802 229.766 201.683 251.939 201.683 279.204C201.683 294.076 208.232 308.01 219.726 317.388C220.527 317.991 220.928 318.996 220.928 320.001C220.928 321.006 220.461 321.943 219.726 322.613C208.232 332.059 201.683 345.993 201.683 360.797C201.683 388.062 223.802 410.236 251 410.236C278.198 410.236 300.251 387.995 300.251 360.73C300.251 345.859 293.702 331.925 282.208 322.546C281.406 321.944 281.005 320.939 281.005 319.934C281.005 318.929 281.473 317.991 282.208 317.321C293.702 307.876 300.251 293.942 300.251 279.137C300.251 251.872 278.131 229.766 251 229.766Z" fill="#383A48"/>
<path d="M251 554.999C249.129 554.999 247.659 553.526 247.659 551.65V270.83C247.659 268.954 249.129 267.48 251 267.48C252.871 267.48 254.341 268.954 254.341 270.83V551.65C254.341 553.459 252.804 554.999 251 554.999Z" fill="#383A48"/>
<path d="M251 378.951C250.131 378.951 249.263 378.616 248.594 377.879L229.883 358.184C228.613 356.844 228.68 354.701 230.017 353.428C231.353 352.155 233.492 352.222 234.761 353.562L253.473 373.257C254.742 374.597 254.676 376.74 253.339 378.013C252.604 378.683 251.802 378.951 251 378.951Z" fill="#383A48"/>
<path d="M251 378.951C250.198 378.951 249.329 378.616 248.728 378.013C247.391 376.74 247.324 374.597 248.594 373.257L267.305 353.562C268.575 352.222 270.713 352.155 272.05 353.428C273.386 354.701 273.453 356.844 272.184 358.184L253.472 377.879C252.737 378.616 251.869 378.951 251 378.951Z" fill="#383A48"/>
<path d="M251 309.215C250.131 309.215 249.263 308.88 248.594 308.143L229.883 288.448C228.613 287.108 228.68 284.964 230.017 283.692C231.353 282.419 233.492 282.486 234.761 283.826L253.473 303.52C254.742 304.86 254.676 307.004 253.339 308.277C252.604 308.88 251.802 309.215 251 309.215Z" fill="#383A48"/>
<path d="M251 309.215C250.198 309.215 249.329 308.88 248.728 308.277C247.391 307.004 247.324 304.86 248.594 303.52L267.305 283.826C268.575 282.486 270.713 282.419 272.05 283.692C273.386 284.964 273.453 287.108 272.184 288.448L253.472 308.143C252.737 308.88 251.869 309.215 251 309.215Z" fill="#383A48"/>
<path d="M379 479.286C356.505 479.286 338.298 460.94 338.298 438.274V372.336C338.298 349.67 356.505 331.324 379 331.324C401.495 331.324 419.702 349.67 419.702 372.336V438.274C419.702 460.94 401.495 479.286 379 479.286Z" fill="#F6E049"/>
<path d="M379 482.609C354.724 482.609 335 462.734 335 438.273V372.335C335 347.874 354.724 328 379 328C403.276 328 423 347.874 423 372.335V438.273C423 462.734 403.276 482.609 379 482.609ZM379 334.713C358.418 334.713 341.597 351.597 341.597 372.402V438.34C341.597 459.078 358.352 476.028 379 476.028C399.582 476.028 416.403 459.145 416.403 438.34V372.402C416.403 351.597 399.648 334.713 379 334.713Z" fill="#383A48"/>
<path d="M379 553C377.153 553 375.702 551.537 375.702 549.676V417.468C375.702 415.607 377.153 414.145 379 414.145C380.847 414.145 382.298 415.607 382.298 417.468V549.676C382.298 551.471 380.847 553 379 553Z" fill="#383A48"/>
<path d="M842.484 258.999C841.617 258.999 840.75 258.664 840.149 257.994L825.937 243.718C819.332 237.083 819.332 226.359 825.937 219.791C832.543 213.156 843.218 213.156 849.757 219.791L854.427 224.482C860.432 230.515 870.174 230.515 876.179 224.482L878.113 222.539C879.448 221.198 881.52 221.198 882.85 222.539C884.19 223.879 884.19 225.957 882.85 227.297L880.916 229.241C872.309 237.887 858.297 237.887 849.69 229.241L845.02 224.55C841.016 220.528 834.611 220.528 830.608 224.55C826.605 228.571 826.605 235.005 830.608 239.026L844.82 253.302C846.154 254.643 846.154 256.72 844.82 258.061C844.219 258.664 843.352 258.999 842.484 258.999Z" fill="#383A48"/>
<path d="M925.02 165.102L914.939 154.981L943.37 126.43C946.17 123.615 950.639 123.615 953.439 126.43C956.239 129.245 956.239 133.735 953.439 136.55L925.02 165.102Z" fill="#F3F6E6"/>
<path d="M925.02 168.452C924.15 168.452 923.28 168.117 922.68 167.447L912.61 157.326C912.01 156.723 911.61 155.852 911.61 154.981C911.61 154.109 911.94 153.238 912.61 152.635L941.03 124.083C943.03 122.072 945.64 121 948.44 121C951.24 121 953.84 122.072 955.84 124.083C959.91 128.171 959.91 134.807 955.84 138.895L927.42 167.447C926.69 168.117 925.82 168.452 925.02 168.452ZM919.68 154.981L925.02 160.342L951.11 134.136C952.57 132.662 952.57 130.249 951.11 128.775C950.37 128.037 949.44 127.635 948.44 127.635C947.44 127.635 946.5 128.037 945.77 128.775L919.68 154.981Z" fill="#383A48"/>
<path d="M940.1 180.249L950.17 190.369L978.6 161.818C981.4 159.003 981.4 154.512 978.6 151.697C975.79 148.882 971.32 148.882 968.52 151.697L940.1 180.249Z" fill="#F3F6E6"/>
<path d="M950.109 193.653C949.239 193.653 948.37 193.318 947.77 192.648L937.699 182.528C937.099 181.924 936.689 181.053 936.689 180.182C936.689 179.31 937.029 178.439 937.699 177.836L966.12 149.284C968.12 147.274 970.72 146.201 973.52 146.201C976.33 146.201 978.93 147.274 980.93 149.284C985 153.373 985 160.008 980.93 164.096L952.51 192.648C951.84 193.318 950.969 193.653 950.109 193.653ZM944.77 180.249L950.109 185.611L976.189 159.405C977.659 157.93 977.659 155.517 976.189 154.043C974.729 152.568 972.319 152.568 970.859 154.043L944.77 180.249Z" fill="#383A48"/>
<path d="M883.12 222.272C866.504 205.583 866.504 178.439 883.12 161.75L901.8 142.984C906.2 138.56 913.34 138.56 917.81 142.984L962.12 187.487C966.52 191.91 966.52 199.082 962.12 203.572L943.43 222.339C926.75 238.96 899.8 238.96 883.12 222.272Z" fill="#7FD6C2"/>
<path d="M913.28 238.156C901 238.156 889.46 233.33 880.782 224.617C872.109 215.904 867.305 204.309 867.305 191.977C867.305 179.645 872.109 168.05 880.782 159.337L899.46 140.571C902.2 137.823 905.94 136.281 909.81 136.281C913.68 136.281 917.41 137.823 920.15 140.571L964.45 185.074C967.19 187.822 968.72 191.575 968.72 195.462C968.72 199.417 967.19 203.103 964.45 205.851L945.77 224.617C937.1 233.33 925.55 238.156 913.28 238.156ZM909.87 142.984C907.74 142.984 905.74 143.788 904.27 145.329L885.59 164.096C870.24 179.511 870.24 204.51 885.59 219.926C900.93 235.341 925.82 235.341 941.17 219.926L959.85 201.159C961.38 199.618 962.18 197.607 962.18 195.529C962.18 193.385 961.38 191.374 959.85 189.9L915.54 145.396C914.01 143.788 912.01 142.984 909.87 142.984Z" fill="#383A48"/>
<path d="M28.9607 151H21.9697V174H28.9607V151Z" fill="#383A48"/>
<path d="M37 159.039H14V166.03H37V159.039Z" fill="#383A48"/>
<path d="M968.96 413H961.97V436H968.96V413Z" fill="#383A48"/>
<path d="M977 421.039H954V428.03H977V421.039Z" fill="#383A48"/>
<path d="M422.271 547.438C341.175 533.385 311.6 493.812 285.541 458.879C267.77 435.016 250.993 412.545 220.491 402.47C208.688 398.559 195.558 396.04 181.7 393.322C160.746 389.279 139.063 385.036 119.369 375.69C97.155 365.151 81.108 349.507 70.233 327.831C69.57 326.439 67.979 325.71 66.52 326.108C64.995 326.439 64 327.765 64 329.356V435.48C64 436.408 64.398 437.27 65.061 437.933C65.724 438.529 66.652 438.861 67.581 438.795C68.178 438.728 68.841 438.728 69.437 438.662C75.339 438.463 80.909 439.656 86.015 442.374C86.147 442.44 86.346 442.507 86.545 442.573C91.85 444.296 96.492 447.279 100.338 451.455L100.404 451.521C108.229 459.343 112.671 470.148 113.268 482.742C113.467 487.183 113.6 491.691 113.732 496.066C113.799 498.386 113.865 500.64 113.931 502.96C113.998 504.418 114.992 505.677 116.385 506.075C116.915 506.208 117.446 506.34 117.976 506.539C118.109 506.605 118.241 506.605 118.44 506.672C129.846 508.594 142.179 510.715 157.298 513.499C164.194 514.759 171.157 516.018 178.053 517.277C193.569 520.128 209.616 523.044 225.398 525.762C237.4 527.817 247.346 530.203 256.829 533.319L259.282 534.114C266.709 536.567 274.401 539.086 282.225 540.743C282.424 540.809 282.623 540.809 282.822 540.809C290.182 541.074 297.145 543.063 303.577 546.708C305.633 548.034 310.606 548.697 331.427 550.619C340.976 551.481 354.039 552.674 356.36 553.536C356.89 553.867 357.487 554 358.084 554H421.675C423.399 554 424.857 552.674 424.99 550.951C425.123 549.227 423.929 547.769 422.271 547.438Z" fill="#383A48"/>
<path d="M361.648 548.353C333.695 548.353 310.3 541.101 290.19 526.262C272.359 513.101 259.354 495.845 246.752 479.193C229.86 456.834 213.905 435.683 188.835 428.499C186.824 427.894 184.679 427.29 182.534 426.686C121.063 409.026 6.703 376.26 6.703 268.357C6.703 266.477 5.229 265 3.352 265C1.475 265 0 266.477 0 268.357V551.643C0 553.523 1.475 555 3.352 555H361.648C363.525 555 365 553.523 365 551.643C365 549.763 363.525 548.353 361.648 548.353Z" fill="#F3F6E6"/>
<path d="M1021.48 555H363.518C361.548 555 360 553.46 360 551.5C360 549.54 361.548 548 363.518 548H1021.48C1023.45 548 1025 549.54 1025 551.5C1025 553.46 1023.45 555 1021.48 555Z" fill="#383A48"/>
<path d="M593.39 244C592.383 244 591.377 243.528 590.706 242.719C589.566 241.235 589.834 239.144 591.31 237.997C643.97 197.189 662.753 173.784 668.187 160.564C664.967 160.564 662.015 159.889 659.399 158.608C654.166 156.044 651.349 151.458 651.752 146.399C652.154 141.677 655.307 137.63 659.6 136.349C661.881 135.674 667.717 134.865 673.419 142.082C675.7 144.982 676.84 148.355 676.84 152.2C685.226 149.367 695.691 142.689 707.564 132.572C723.731 118.812 736.946 103.298 737.081 103.163C738.288 101.747 740.435 101.612 741.843 102.826C743.252 104.04 743.386 106.198 742.179 107.615C741.642 108.289 728.427 123.668 711.858 137.765C697.703 149.839 685.628 157.124 675.633 159.687C669.998 178.506 643.702 206.025 595.402 243.461C594.798 243.798 594.128 244 593.39 244ZM662.552 142.554C662.216 142.554 661.881 142.622 661.546 142.689C659.936 143.161 658.594 144.915 658.46 146.804C658.259 149.097 659.667 151.053 662.418 152.402C664.564 153.481 667.113 153.886 670.065 153.616C670.333 150.581 669.73 148.153 668.12 146.129C666.308 143.836 664.296 142.554 662.552 142.554Z" fill="#4053FA"/>
</svg>
