<svg width="1178" height="598" viewBox="0 0 1178 598" fill="none" xmlns="http://www.w3.org/2000/svg">
<path d="M321.219 3.65094C321.068 2.7365 320.6 1.90582 319.898 1.30148C319.196 0.698264 318.304 0.362137 317.38 0.350819H20.792C20.2748 0.345161 19.7621 0.442487 19.2834 0.638276C18.8058 0.834065 18.3713 1.12265 18.0057 1.48933C17.6402 1.85488 17.3516 2.2906 17.1558 2.76932C16.9611 3.24918 16.8638 3.76185 16.8683 4.28018V234.555C16.8717 235.119 16.9928 235.674 17.2225 236.189C17.4512 236.703 17.785 237.164 18.2026 237.542C18.9224 238.161 19.8425 238.497 20.792 238.485H21.2628C113.202 226.861 140.949 181.072 170.342 132.613C184.372 109.443 198.951 85.4885 221.211 63.7321C246.37 39.1487 278.271 20.9279 318.559 8.12579C319.457 7.81231 320.216 7.19211 320.702 6.37387C321.189 5.55564 321.372 4.59141 321.219 3.65094Z" fill="#F3F6E6"/>
<path d="M81.4372 77.8416C83.6045 77.8416 85.3598 76.0829 85.3598 73.9123C85.3598 71.7416 83.6045 69.9829 81.4372 69.9829C79.2711 69.9829 77.5146 71.7416 77.5146 73.9123C77.5146 76.0829 79.2711 77.8416 81.4372 77.8416Z" fill="#383A48"/>
<path d="M115.959 77.8416C118.125 77.8416 119.881 76.0829 119.881 73.9123C119.881 71.7416 118.125 69.9829 115.959 69.9829C113.792 69.9829 112.035 71.7416 112.035 73.9123C112.035 76.0829 113.792 77.8416 115.959 77.8416Z" fill="#383A48"/>
<path d="M150.477 77.8416C152.644 77.8416 154.401 76.0829 154.401 73.9123C154.401 71.7416 152.644 69.9829 150.477 69.9829C148.311 69.9829 146.555 71.7416 146.555 73.9123C146.555 76.0829 148.311 77.8416 150.477 77.8416Z" fill="#383A48"/>
<path d="M184.999 77.8416C187.165 77.8416 188.921 76.0829 188.921 73.9123C188.921 71.7416 187.165 69.9829 184.999 69.9829C182.831 69.9829 181.076 71.7416 181.076 73.9123C181.076 76.0829 182.831 77.8416 184.999 77.8416Z" fill="#383A48"/>
<path d="M219.517 77.8416C221.684 77.8416 223.44 76.0829 223.44 73.9123C223.44 71.7416 221.684 69.9829 219.517 69.9829C217.35 69.9829 215.594 71.7416 215.594 73.9123C215.594 76.0829 217.35 77.8416 219.517 77.8416Z" fill="#383A48"/>
<path d="M254.038 77.8416C256.204 77.8416 257.96 76.0829 257.96 73.9123C257.96 71.7416 256.204 69.9829 254.038 69.9829C251.872 69.9829 250.115 71.7416 250.115 73.9123C250.115 76.0829 251.872 77.8416 254.038 77.8416Z" fill="#383A48"/>
<path d="M81.4372 112.422C83.6045 112.422 85.3598 110.662 85.3598 108.493C85.3598 106.322 83.6045 104.562 81.4372 104.562C79.2711 104.562 77.5146 106.322 77.5146 108.493C77.5146 110.662 79.2711 112.422 81.4372 112.422Z" fill="#383A48"/>
<path d="M115.959 112.422C118.125 112.422 119.881 110.662 119.881 108.493C119.881 106.322 118.125 104.562 115.959 104.562C113.792 104.562 112.035 106.322 112.035 108.493C112.035 110.662 113.792 112.422 115.959 112.422Z" fill="#383A48"/>
<path d="M150.477 112.422C152.644 112.422 154.401 110.662 154.401 108.493C154.401 106.322 152.644 104.562 150.477 104.562C148.311 104.562 146.555 106.322 146.555 108.493C146.555 110.662 148.311 112.422 150.477 112.422Z" fill="#383A48"/>
<path d="M184.999 112.422C187.165 112.422 188.921 110.662 188.921 108.493C188.921 106.322 187.165 104.562 184.999 104.562C182.831 104.562 181.076 106.322 181.076 108.493C181.076 110.662 182.831 112.422 184.999 112.422Z" fill="#383A48"/>
<path d="M219.517 112.422C221.684 112.422 223.44 110.662 223.44 108.493C223.44 106.322 221.684 104.562 219.517 104.562C217.35 104.562 215.594 106.322 215.594 108.493C215.594 110.662 217.35 112.422 219.517 112.422Z" fill="#383A48"/>
<path d="M254.038 112.422C256.204 112.422 257.96 110.662 257.96 108.493C257.96 106.322 256.204 104.562 254.038 104.562C251.872 104.562 250.115 106.322 250.115 108.493C250.115 110.662 251.872 112.422 254.038 112.422Z" fill="#383A48"/>
<path d="M81.4372 147.002C83.6045 147.002 85.3598 145.244 85.3598 143.073C85.3598 140.903 83.6045 139.144 81.4372 139.144C79.2711 139.144 77.5146 140.903 77.5146 143.073C77.5146 145.244 79.2711 147.002 81.4372 147.002Z" fill="#383A48"/>
<path d="M115.959 147.002C118.125 147.002 119.881 145.244 119.881 143.073C119.881 140.903 118.125 139.144 115.959 139.144C113.792 139.144 112.035 140.903 112.035 143.073C112.035 145.244 113.792 147.002 115.959 147.002Z" fill="#383A48"/>
<path d="M150.477 147.002C152.644 147.002 154.401 145.244 154.401 143.073C154.401 140.903 152.644 139.144 150.477 139.144C148.311 139.144 146.555 140.903 146.555 143.073C146.555 145.244 148.311 147.002 150.477 147.002Z" fill="#383A48"/>
<path d="M184.999 147.002C187.165 147.002 188.921 145.244 188.921 143.073C188.921 140.903 187.165 139.144 184.999 139.144C182.831 139.144 181.076 140.903 181.076 143.073C181.076 145.244 182.831 147.002 184.999 147.002Z" fill="#383A48"/>
<path d="M219.517 147.002C221.684 147.002 223.44 145.244 223.44 143.073C223.44 140.903 221.684 139.144 219.517 139.144C217.35 139.144 215.594 140.903 215.594 143.073C215.594 145.244 217.35 147.002 219.517 147.002Z" fill="#383A48"/>
<path d="M254.038 147.002C256.204 147.002 257.96 145.244 257.96 143.073C257.96 140.903 256.204 139.144 254.038 139.144C251.872 139.144 250.115 140.903 250.115 143.073C250.115 145.244 251.872 147.002 254.038 147.002Z" fill="#383A48"/>
<path d="M81.4372 181.583C83.6045 181.583 85.3598 179.824 85.3598 177.653C85.3598 175.483 83.6045 173.724 81.4372 173.724C79.2711 173.724 77.5146 175.483 77.5146 177.653C77.5146 179.824 79.2711 181.583 81.4372 181.583Z" fill="#383A48"/>
<path d="M115.959 181.583C118.125 181.583 119.881 179.824 119.881 177.653C119.881 175.483 118.125 173.724 115.959 173.724C113.792 173.724 112.035 175.483 112.035 177.653C112.035 179.824 113.792 181.583 115.959 181.583Z" fill="#383A48"/>
<path d="M150.477 181.583C152.644 181.583 154.401 179.824 154.401 177.653C154.401 175.483 152.644 173.724 150.477 173.724C148.311 173.724 146.555 175.483 146.555 177.653C146.555 179.824 148.311 181.583 150.477 181.583Z" fill="#383A48"/>
<path d="M184.999 181.583C187.165 181.583 188.921 179.824 188.921 177.653C188.921 175.483 187.165 173.724 184.999 173.724C182.831 173.724 181.076 175.483 181.076 177.653C181.076 179.824 182.831 181.583 184.999 181.583Z" fill="#383A48"/>
<path d="M219.517 181.583C221.684 181.583 223.44 179.824 223.44 177.653C223.44 175.483 221.684 173.724 219.517 173.724C217.35 173.724 215.594 175.483 215.594 177.653C215.594 179.824 217.35 181.583 219.517 181.583Z" fill="#383A48"/>
<path d="M254.038 181.583C256.204 181.583 257.96 179.824 257.96 177.653C257.96 175.483 256.204 173.724 254.038 173.724C251.872 173.724 250.115 175.483 250.115 177.653C250.115 179.824 251.872 181.583 254.038 181.583Z" fill="#383A48"/>
<path d="M81.4372 216.165C83.6045 216.165 85.3598 214.405 85.3598 212.236C85.3598 210.065 83.6045 208.305 81.4372 208.305C79.2711 208.305 77.5146 210.065 77.5146 212.236C77.5146 214.405 79.2711 216.165 81.4372 216.165Z" fill="#383A48"/>
<path d="M115.959 216.165C118.125 216.165 119.881 214.405 119.881 212.236C119.881 210.065 118.125 208.305 115.959 208.305C113.792 208.305 112.035 210.065 112.035 212.236C112.035 214.405 113.792 216.165 115.959 216.165Z" fill="#383A48"/>
<path d="M150.477 216.165C152.644 216.165 154.401 214.405 154.401 212.236C154.401 210.065 152.644 208.305 150.477 208.305C148.311 208.305 146.555 210.065 146.555 212.236C146.555 214.405 148.311 216.165 150.477 216.165Z" fill="#383A48"/>
<path d="M184.999 216.165C187.165 216.165 188.921 214.405 188.921 212.236C188.921 210.065 187.165 208.305 184.999 208.305C182.831 208.305 181.076 210.065 181.076 212.236C181.076 214.405 182.831 216.165 184.999 216.165Z" fill="#383A48"/>
<path d="M219.517 216.165C221.684 216.165 223.44 214.405 223.44 212.236C223.44 210.065 221.684 208.305 219.517 208.305C217.35 208.305 215.594 210.065 215.594 212.236C215.594 214.405 217.35 216.165 219.517 216.165Z" fill="#383A48"/>
<path d="M254.038 216.165C256.204 216.165 257.96 214.405 257.96 212.236C257.96 210.065 256.204 208.305 254.038 208.305C251.872 208.305 250.115 210.065 250.115 212.236C250.115 214.405 251.872 216.165 254.038 216.165Z" fill="#383A48"/>
<path d="M81.4372 250.743C83.6045 250.743 85.3598 248.984 85.3598 246.814C85.3598 244.644 83.6045 242.884 81.4372 242.884C79.2711 242.884 77.5146 244.644 77.5146 246.814C77.5146 248.984 79.2711 250.743 81.4372 250.743Z" fill="#383A48"/>
<path d="M115.959 250.743C118.125 250.743 119.881 248.984 119.881 246.814C119.881 244.644 118.125 242.884 115.959 242.884C113.792 242.884 112.035 244.644 112.035 246.814C112.035 248.984 113.792 250.743 115.959 250.743Z" fill="#383A48"/>
<path d="M150.477 250.743C152.644 250.743 154.401 248.984 154.401 246.814C154.401 244.644 152.644 242.884 150.477 242.884C148.311 242.884 146.555 244.644 146.555 246.814C146.555 248.984 148.311 250.743 150.477 250.743Z" fill="#383A48"/>
<path d="M184.999 250.743C187.165 250.743 188.921 248.984 188.921 246.814C188.921 244.644 187.165 242.884 184.999 242.884C182.831 242.884 181.076 244.644 181.076 246.814C181.076 248.984 182.831 250.743 184.999 250.743Z" fill="#383A48"/>
<path d="M219.517 250.743C221.684 250.743 223.44 248.984 223.44 246.814C223.44 244.644 221.684 242.884 219.517 242.884C217.35 242.884 215.594 244.644 215.594 246.814C215.594 248.984 217.35 250.743 219.517 250.743Z" fill="#383A48"/>
<path d="M254.038 250.743C256.204 250.743 257.96 248.984 257.96 246.814C257.96 244.644 256.204 242.884 254.038 242.884C251.872 242.884 250.115 244.644 250.115 246.814C250.115 248.984 251.872 250.743 254.038 250.743Z" fill="#383A48"/>
<path d="M81.4372 285.326C83.6045 285.326 85.3598 283.567 85.3598 281.397C85.3598 279.226 83.6045 277.467 81.4372 277.467C79.2711 277.467 77.5146 279.226 77.5146 281.397C77.5146 283.567 79.2711 285.326 81.4372 285.326Z" fill="#383A48"/>
<path d="M115.959 285.326C118.125 285.326 119.881 283.567 119.881 281.397C119.881 279.226 118.125 277.467 115.959 277.467C113.792 277.467 112.035 279.226 112.035 281.397C112.035 283.567 113.792 285.326 115.959 285.326Z" fill="#383A48"/>
<path d="M150.477 285.326C152.644 285.326 154.401 283.567 154.401 281.397C154.401 279.226 152.644 277.467 150.477 277.467C148.311 277.467 146.555 279.226 146.555 281.397C146.555 283.567 148.311 285.326 150.477 285.326Z" fill="#383A48"/>
<path d="M184.999 285.326C187.165 285.326 188.921 283.567 188.921 281.397C188.921 279.226 187.165 277.467 184.999 277.467C182.831 277.467 181.076 279.226 181.076 281.397C181.076 283.567 182.831 285.326 184.999 285.326Z" fill="#383A48"/>
<path d="M219.517 285.326C221.684 285.326 223.44 283.567 223.44 281.397C223.44 279.226 221.684 277.467 219.517 277.467C217.35 277.467 215.594 279.226 215.594 281.397C215.594 283.567 217.35 285.326 219.517 285.326Z" fill="#383A48"/>
<path d="M254.038 285.326C256.204 285.326 257.96 283.567 257.96 281.397C257.96 279.226 256.204 277.467 254.038 277.467C251.872 277.467 250.115 279.226 250.115 281.397C250.115 283.567 251.872 285.326 254.038 285.326Z" fill="#383A48"/>
<path d="M81.4372 319.906C83.6045 319.906 85.3598 318.146 85.3598 315.977C85.3598 313.806 83.6045 312.046 81.4372 312.046C79.2711 312.046 77.5146 313.806 77.5146 315.977C77.5146 318.146 79.2711 319.906 81.4372 319.906Z" fill="#383A48"/>
<path d="M115.959 319.906C118.125 319.906 119.881 318.146 119.881 315.977C119.881 313.806 118.125 312.046 115.959 312.046C113.792 312.046 112.035 313.806 112.035 315.977C112.035 318.146 113.792 319.906 115.959 319.906Z" fill="#383A48"/>
<path d="M150.477 319.906C152.644 319.906 154.401 318.146 154.401 315.977C154.401 313.806 152.644 312.046 150.477 312.046C148.311 312.046 146.555 313.806 146.555 315.977C146.555 318.146 148.311 319.906 150.477 319.906Z" fill="#383A48"/>
<path d="M184.999 319.906C187.165 319.906 188.921 318.146 188.921 315.977C188.921 313.806 187.165 312.046 184.999 312.046C182.831 312.046 181.076 313.806 181.076 315.977C181.076 318.146 182.831 319.906 184.999 319.906Z" fill="#383A48"/>
<path d="M219.517 319.906C221.684 319.906 223.44 318.146 223.44 315.977C223.44 313.806 221.684 312.046 219.517 312.046C217.35 312.046 215.594 313.806 215.594 315.977C215.594 318.146 217.35 319.906 219.517 319.906Z" fill="#383A48"/>
<path d="M254.038 319.906C256.204 319.906 257.96 318.146 257.96 315.977C257.96 313.806 256.204 312.046 254.038 312.046C251.872 312.046 250.115 313.806 250.115 315.977C250.115 318.146 251.872 319.906 254.038 319.906Z" fill="#383A48"/>
<path d="M81.4372 354.487C83.6045 354.487 85.3598 352.728 85.3598 350.557C85.3598 348.388 83.6045 346.628 81.4372 346.628C79.2711 346.628 77.5146 348.388 77.5146 350.557C77.5146 352.728 79.2711 354.487 81.4372 354.487Z" fill="#383A48"/>
<path d="M115.959 354.487C118.125 354.487 119.881 352.728 119.881 350.557C119.881 348.388 118.125 346.628 115.959 346.628C113.792 346.628 112.035 348.388 112.035 350.557C112.035 352.728 113.792 354.487 115.959 354.487Z" fill="#383A48"/>
<path d="M150.477 354.487C152.644 354.487 154.401 352.728 154.401 350.557C154.401 348.388 152.644 346.628 150.477 346.628C148.311 346.628 146.555 348.388 146.555 350.557C146.555 352.728 148.311 354.487 150.477 354.487Z" fill="#383A48"/>
<path d="M184.999 354.487C187.165 354.487 188.921 352.728 188.921 350.557C188.921 348.388 187.165 346.628 184.999 346.628C182.831 346.628 181.076 348.388 181.076 350.557C181.076 352.728 182.831 354.487 184.999 354.487Z" fill="#383A48"/>
<path d="M219.517 354.487C221.684 354.487 223.44 352.728 223.44 350.557C223.44 348.388 221.684 346.628 219.517 346.628C217.35 346.628 215.594 348.388 215.594 350.557C215.594 352.728 217.35 354.487 219.517 354.487Z" fill="#383A48"/>
<path d="M254.038 354.487C256.204 354.487 257.96 352.728 257.96 350.557C257.96 348.388 256.204 346.628 254.038 346.628C251.872 346.628 250.115 348.388 250.115 350.557C250.115 352.728 251.872 354.487 254.038 354.487Z" fill="#383A48"/>
<path d="M81.4372 389.067C83.6045 389.067 85.3598 387.308 85.3598 385.138C85.3598 382.967 83.6045 381.208 81.4372 381.208C79.2711 381.208 77.5146 382.967 77.5146 385.138C77.5146 387.308 79.2711 389.067 81.4372 389.067Z" fill="#383A48"/>
<path d="M115.959 389.067C118.125 389.067 119.881 387.308 119.881 385.138C119.881 382.967 118.125 381.208 115.959 381.208C113.792 381.208 112.035 382.967 112.035 385.138C112.035 387.308 113.792 389.067 115.959 389.067Z" fill="#383A48"/>
<path d="M150.477 389.067C152.644 389.067 154.401 387.308 154.401 385.138C154.401 382.967 152.644 381.208 150.477 381.208C148.311 381.208 146.555 382.967 146.555 385.138C146.555 387.308 148.311 389.067 150.477 389.067Z" fill="#383A48"/>
<path d="M184.999 389.067C187.165 389.067 188.921 387.308 188.921 385.138C188.921 382.967 187.165 381.208 184.999 381.208C182.831 381.208 181.076 382.967 181.076 385.138C181.076 387.308 182.831 389.067 184.999 389.067Z" fill="#383A48"/>
<path d="M219.517 389.067C221.684 389.067 223.44 387.308 223.44 385.138C223.44 382.967 221.684 381.208 219.517 381.208C217.35 381.208 215.594 382.967 215.594 385.138C215.594 387.308 217.35 389.067 219.517 389.067Z" fill="#383A48"/>
<path d="M254.038 389.067C256.204 389.067 257.96 387.308 257.96 385.138C257.96 382.967 256.204 381.208 254.038 381.208C251.872 381.208 250.115 382.967 250.115 385.138C250.115 387.308 251.872 389.067 254.038 389.067Z" fill="#383A48"/>
<path d="M81.4372 423.647C83.6045 423.647 85.3598 421.887 85.3598 419.718C85.3598 417.547 83.6045 415.787 81.4372 415.787C79.2711 415.787 77.5146 417.547 77.5146 419.718C77.5146 421.887 79.2711 423.647 81.4372 423.647Z" fill="#383A48"/>
<path d="M115.959 423.647C118.125 423.647 119.881 421.887 119.881 419.718C119.881 417.547 118.125 415.787 115.959 415.787C113.792 415.787 112.035 417.547 112.035 419.718C112.035 421.887 113.792 423.647 115.959 423.647Z" fill="#383A48"/>
<path d="M150.477 423.647C152.644 423.647 154.401 421.887 154.401 419.718C154.401 417.547 152.644 415.787 150.477 415.787C148.311 415.787 146.555 417.547 146.555 419.718C146.555 421.887 148.311 423.647 150.477 423.647Z" fill="#383A48"/>
<path d="M184.999 423.647C187.165 423.647 188.921 421.887 188.921 419.718C188.921 417.547 187.165 415.787 184.999 415.787C182.831 415.787 181.076 417.547 181.076 419.718C181.076 421.887 182.831 423.647 184.999 423.647Z" fill="#383A48"/>
<path d="M219.517 423.647C221.684 423.647 223.44 421.887 223.44 419.718C223.44 417.547 221.684 415.787 219.517 415.787C217.35 415.787 215.594 417.547 215.594 419.718C215.594 421.887 217.35 423.647 219.517 423.647Z" fill="#383A48"/>
<path d="M254.038 423.647C256.204 423.647 257.96 421.887 257.96 419.718C257.96 417.547 256.204 415.787 254.038 415.787C251.872 415.787 250.115 417.547 250.115 419.718C250.115 421.887 251.872 423.647 254.038 423.647Z" fill="#383A48"/>
<path d="M867.15 591.235C851.964 573.63 833.101 557.119 811.184 542.175C783.944 523.627 751.772 507.433 715.453 493.974C684.456 482.472 659.487 464.084 639.291 437.715C619.8 412.363 605.87 381.378 593.735 351.722C584.812 329.891 569.861 312.521 550.605 301.566C532.837 291.472 512.329 287.247 491.35 289.281C445.795 293.741 410.649 326.136 401.725 371.832C398.157 390.03 393.105 407.903 386.619 425.274C367.442 476.839 306.386 518.857 258.561 544.994C226.125 562.627 192.364 577.695 157.586 590.062C156.715 590.356 155.979 590.95 155.506 591.738C155.033 592.526 154.855 593.457 155.003 594.364C155.156 595.275 155.624 596.104 156.325 596.705C157.027 597.306 157.916 597.641 158.838 597.651H864.176C864.92 597.663 865.653 597.455 866.28 597.051C866.906 596.647 867.4 596.066 867.698 595.382C868.038 594.717 868.168 593.964 868.07 593.223C867.973 592.482 867.651 591.789 867.15 591.235Z" fill="#F3F6E6"/>
<path d="M675.888 597.652C674.836 537.574 626.069 489.195 566.051 489.195C506.034 489.195 457.266 537.574 456.215 597.652H675.888Z" fill="#F6E049"/>
<path d="M1174.14 0.350946H726.874C726.051 0.339629 725.247 0.595397 724.58 1.07864C723.913 1.56189 723.42 2.24659 723.173 3.03314C722.91 3.81743 722.896 4.66396 723.136 5.45617C723.376 6.24838 723.857 6.9444 724.512 7.45028C791.523 57.9344 824.122 118.594 847.116 171.365C854.045 187.3 860.424 203.156 866.486 218.458C880.346 253.165 893.417 285.902 911.449 313.826C931.847 345.379 955.86 366.677 987.122 380.718C991.377 382.611 995.938 384.504 1000.67 386.16C1042.95 401.384 1101.7 428.993 1141.14 473.798C1164.69 500.539 1170.2 521.049 1170.28 521.285C1170.74 523.02 1172.33 524.561 1174.06 524.561H1174.52C1175.49 524.446 1176.38 523.98 1177.01 523.252C1177.65 522.525 1178 521.586 1178 520.617V4.29389C1178.01 3.77895 1177.92 3.26741 1177.73 2.78756C1177.55 2.3077 1177.26 1.87085 1176.9 1.50304C1176.54 1.13523 1176.11 0.84325 1175.63 0.645198C1175.16 0.447145 1174.65 0.347551 1174.14 0.350946Z" fill="#F3F6E6"/>
<path d="M987.119 380.719C974.04 374.904 961.775 367.409 950.629 358.42C944.67 368.847 940.856 380.363 939.413 392.291C937.97 404.218 938.927 416.314 942.229 427.864C945.53 439.415 951.107 450.185 958.632 459.541C966.158 468.896 975.478 476.646 986.042 482.334C996.606 488.021 1008.21 491.531 1020.15 492.656C1032.09 493.78 1044.13 492.496 1055.57 488.879C1067 485.263 1077.6 479.389 1086.74 471.601C1095.87 463.815 1103.35 454.273 1108.74 443.541C1073.54 416.053 1032.45 397.606 1000.66 386.161C995.938 384.504 991.377 382.611 987.119 380.719Z" fill="#4053FA"/>
<path d="M1028.54 313.196C1012.73 313.19 997.194 317.37 983.517 325.311C969.837 333.253 958.494 344.675 950.637 358.421C961.782 367.409 974.048 374.904 987.126 380.719C991.377 382.611 995.949 384.505 1000.67 386.162C1032.46 397.607 1073.55 416.053 1108.75 443.541C1115.63 429.829 1118.89 414.582 1118.23 399.25C1117.56 383.917 1112.99 369.01 1104.96 355.946C1096.92 342.882 1085.67 332.096 1072.31 324.613C1058.93 317.13 1043.87 313.199 1028.54 313.196Z" fill="#AAC6FC"/>
<path d="M524.862 57.723H515.84V48.6851H507.995V57.723H498.973V65.5829H507.995V74.6209H515.84V65.5829H524.862V57.723Z" fill="#F3F6E6"/>
<path d="M1147.79 567.786H1138.77V558.748H1130.93V567.786H1121.9V575.645H1130.93V584.683H1138.77V575.645H1147.79V567.786Z" fill="#F3F6E6"/>
<path d="M821.422 314.718H812.4V305.68H804.555V314.718H795.532V322.578H804.555V331.615H812.4V322.578H821.422V314.718Z" fill="#F3F6E6"/>
<path d="M24.6822 556.723L19.1344 551.165L12.7492 557.563L6.37081 551.173L0.824219 556.73L7.20151 563.119L0.827612 569.505L6.37535 575.061L12.7492 568.676L19.1299 575.068L24.6777 569.511L18.2958 563.119L24.6822 556.723Z" fill="#F3F6E6"/>
<path d="M351.251 268.38L345.703 262.822L339.318 269.219L332.939 262.829L327.392 268.387L333.77 274.777L327.396 281.161L332.944 286.719L339.318 280.334L345.698 286.727L351.246 281.169L344.864 274.777L351.251 268.38Z" fill="#F3F6E6"/>
<path d="M534.253 103.401H485.394V167.646H534.253V103.401Z" fill="#383A48"/>
<path d="M553.922 135.507H465.759C445.404 135.507 428.877 118.979 428.877 98.6231V49.0726C428.877 28.7162 445.404 12.1885 465.759 12.1885H553.922C574.277 12.1885 590.803 28.7162 590.803 49.0726V98.6559C590.803 119.012 574.277 135.507 553.922 135.507Z" fill="#F3F6E6"/>
<path d="M553.921 137.145H465.759C444.519 137.145 427.24 119.865 427.24 98.6232V49.0739C427.24 27.8336 444.519 10.5532 465.759 10.5532H553.921C575.159 10.5532 592.439 27.8336 592.439 49.0739V98.656C592.439 119.865 575.159 137.145 553.921 137.145ZM465.759 13.8262C446.319 13.8262 430.513 29.633 430.513 49.0739V98.656C430.513 118.097 446.319 133.905 465.759 133.905H553.921C573.36 133.905 589.167 118.097 589.167 98.656V49.0739C589.167 29.633 573.36 13.8262 553.921 13.8262H465.759Z" fill="#383A48"/>
<path d="M541.453 39.1895H478.195C464.678 39.1895 453.683 50.1853 453.683 63.7027V83.9606C453.683 97.4769 464.678 108.474 478.195 108.474H541.453C554.969 108.474 565.965 97.4769 565.965 83.9606V63.7355C565.998 50.1853 555.002 39.1895 541.453 39.1895Z" fill="#383A48"/>
<path d="M479.176 59.6138H478.882C474.693 59.6138 471.29 63.0169 471.29 67.2065V80.4613C471.29 84.6499 474.693 88.0541 478.882 88.0541H479.176C483.366 88.0541 486.769 84.6499 486.769 80.4613V67.2065C486.802 63.0169 483.366 59.6138 479.176 59.6138Z" fill="#F6E049"/>
<path d="M540.798 59.6138H540.504C536.315 59.6138 532.911 63.0169 532.911 67.2065V80.4613C532.911 84.6499 536.315 88.0541 540.504 88.0541H540.798C544.987 88.0541 548.391 84.6499 548.391 80.4613V67.2065C548.391 63.0169 544.987 59.6138 540.798 59.6138Z" fill="#F6E049"/>
<path d="M509.839 84.3875C504.047 84.3875 499.302 79.675 499.302 73.8489C499.302 72.9333 500.022 72.2124 500.938 72.2124C501.855 72.2124 502.575 72.9333 502.575 73.8489C502.575 77.8416 505.814 81.1146 509.839 81.1146C513.865 81.1146 517.105 77.8744 517.105 73.8489C517.105 72.9333 517.825 72.2124 518.74 72.2124C519.657 72.2124 520.377 72.9333 520.377 73.8489C520.377 79.6422 515.632 84.3875 509.839 84.3875Z" fill="#F6E049"/>
<path d="M509.839 187.249C497.239 187.249 487.062 177.039 487.062 164.471V156.224H532.649V164.471C532.616 177.039 522.438 187.249 509.839 187.249Z" fill="#AAC6FC"/>
<path d="M509.839 188.887C496.357 188.887 485.426 177.923 485.426 164.472V156.224C485.426 155.308 486.147 154.587 487.062 154.587H532.649C533.566 154.587 534.286 155.308 534.286 156.224V164.472C534.253 177.923 523.29 188.887 509.839 188.887ZM488.666 157.828V164.439C488.666 176.09 498.157 185.581 509.807 185.581C521.457 185.581 530.947 176.09 530.947 164.439V157.828H488.666Z" fill="#383A48"/>
<path d="M581.411 157.992H558.535V203.745H581.411C594.042 203.745 604.285 193.502 604.285 180.868C604.285 168.236 594.042 157.992 581.411 157.992Z" fill="#AAC6FC"/>
<path d="M581.412 205.382H558.536C557.619 205.382 556.899 204.663 556.899 203.746V157.992C556.899 157.076 557.619 156.356 558.536 156.356H581.412C594.927 156.356 605.923 167.353 605.923 180.869C605.923 194.385 594.927 205.382 581.412 205.382ZM560.14 202.109H581.379C593.094 202.109 602.617 192.586 602.617 180.869C602.617 169.152 593.094 159.629 581.379 159.629H560.14V202.109Z" fill="#383A48"/>
<path d="M438.269 157.992H461.144V203.745H438.269C425.637 203.745 415.394 193.502 415.394 180.868C415.394 168.236 425.637 157.992 438.269 157.992Z" fill="#AAC6FC"/>
<path d="M461.142 205.382H438.268C424.752 205.382 413.756 194.385 413.756 180.869C413.756 167.353 424.752 156.356 438.268 156.356H461.142C462.059 156.356 462.779 157.076 462.779 157.992V203.746C462.779 204.663 462.059 205.382 461.142 205.382ZM438.268 159.629C426.552 159.629 417.029 169.152 417.029 180.869C417.029 192.586 426.552 202.109 438.268 202.109H459.507V159.629H438.268Z" fill="#383A48"/>
<path d="M559.811 233.986H459.867C446.252 233.986 435.225 222.956 435.225 209.342V184.894C435.225 170.036 447.267 157.992 462.125 157.992H557.618C572.475 157.992 584.519 170.036 584.519 184.894V209.342C584.453 222.956 573.424 233.986 559.811 233.986Z" fill="#F6E049"/>
<path d="M559.812 235.622H459.868C445.37 235.622 433.589 223.841 433.589 209.342V184.895C433.589 169.152 446.384 156.356 462.125 156.356H557.618C573.36 156.356 586.155 169.152 586.155 184.895V209.342C586.09 223.841 574.309 235.622 559.812 235.622ZM462.093 159.629C448.152 159.629 436.829 170.953 436.829 184.895V209.342C436.829 222.04 447.137 232.35 459.835 232.35H559.779C572.476 232.35 582.785 222.04 582.785 209.342V184.895C582.785 170.953 571.462 159.629 557.521 159.629H462.093Z" fill="#383A48"/>
<path d="M544.234 233.986H475.412V213.334C475.412 204.89 482.252 198.017 490.728 198.017H528.918C537.362 198.017 544.234 204.857 544.234 213.334V233.986Z" fill="#F3F6E6"/>
<path d="M545.871 235.622H473.776V213.335C473.776 203.975 481.369 196.382 490.729 196.382H528.919C538.279 196.382 545.871 203.975 545.871 213.335V235.622ZM477.082 232.35H542.632V213.335C542.632 205.808 536.511 199.655 528.952 199.655H490.761C483.234 199.655 477.082 205.775 477.082 213.335V232.35Z" fill="#383A48"/>
<path d="M927.785 113.408C919.58 103.875 907.697 98.6846 894.456 98.6846H784.226C756.272 98.6846 730.072 122.152 725.772 151.035L678.862 466.491C676.711 481.158 680.333 494.81 689.104 504.964C697.309 514.497 709.192 519.687 722.433 519.687H832.664C860.617 519.687 886.817 496.22 891.117 467.337L938.027 151.881C940.178 137.214 936.556 123.562 927.785 113.408Z" fill="#383A48"/>
<path d="M874.142 101.504H763.968C737.316 101.504 712.418 123.9 708.343 151.486L661.433 466.942C657.302 494.528 675.58 516.922 702.232 516.922H812.462C839.115 516.922 864.013 494.528 868.087 466.942L914.997 151.486C919.071 123.844 900.794 101.504 874.142 101.504Z" fill="#F3F6E6"/>
<path d="M812.35 519.687H702.176C688.935 519.687 677.052 514.441 668.847 504.964C660.076 494.81 656.398 481.158 658.605 466.491L705.515 151.035C709.815 122.152 736.015 98.6846 763.968 98.6846H874.199C887.44 98.6846 899.323 103.931 907.528 113.408C916.299 123.562 919.977 137.214 917.77 151.881L870.86 467.337C866.503 496.22 840.304 519.687 812.35 519.687ZM763.968 104.326C738.731 104.326 715.021 125.649 711.117 151.881L664.207 467.337C662.283 480.312 665.452 492.385 673.147 501.297C680.277 509.534 690.576 514.102 702.176 514.102H812.406C837.644 514.102 861.354 492.778 865.258 466.547L912.168 151.092C914.092 138.116 910.923 126.044 903.228 117.132C896.098 108.895 885.799 104.326 874.199 104.326H763.968Z" fill="#383A48"/>
<path d="M874.142 98.6846H760.742C759.158 98.6846 757.913 99.9261 757.913 101.505C757.913 103.085 759.158 104.326 760.742 104.326H769.513C771.041 104.326 772.399 104.89 773.305 105.962C774.323 107.146 774.719 108.782 774.493 110.587C773.984 113.972 774.889 117.3 776.983 119.727C778.963 122.039 781.849 123.337 785.075 123.337H847.433C853.94 123.337 859.825 118.09 860.844 111.433C861.41 107.598 864.975 104.326 868.653 104.326H874.255C875.839 104.326 877.084 103.085 877.084 101.505C876.971 99.9261 875.726 98.6846 874.142 98.6846Z" fill="#383A48"/>
<path d="M804.936 502.933H714.568C712.983 502.933 711.738 501.692 711.738 500.112C711.738 498.533 712.983 497.292 714.568 497.292H804.879C806.464 497.292 807.709 498.533 807.709 500.112C807.709 501.692 806.464 502.933 804.936 502.933Z" fill="#383A48"/>
<path d="M768.578 328.984L744.539 304.557C742.302 302.284 742.302 298.876 744.539 296.603C746.775 294.331 750.129 294.331 752.366 296.603L772.212 316.771L825.879 259.962C828.116 257.69 831.47 257.69 833.706 259.678C835.943 261.95 835.943 265.358 833.986 267.631L776.405 328.984C774.448 331.257 770.814 331.257 768.578 328.984Z" fill="#383A48"/>
</svg>
